<svg width="40" height="40" xmlns="http://www.w3.org/2000/svg" fill="none">
 <g>
  <title>Layer 1</title>
  <path stroke="null" transform="rotate(-122.721 23.8152 13.0236)" id="svg_5" d="m19.31235,5.86993l9.00563,14.30738l-9.00563,-14.30738z" fill="#ffffff"/>
  <path stroke="null" fill="#000000" opacity="NaN" d="m-3.79902,38.49483l12.27794,-14.83936l-3.08379,-7.32616c-1.34161,-3.05784 -1.09363,-4.93496 0.26704,-7.40245l5.4173,-8.09675l3.47167,9.99948c0.87744,2.79156 1.91385,5.22894 0.24796,7.66627l-7.68722,9.1662" id="svg_4" transform="rotate(-10.768 5.94293 19.6625)"/>
  <path stroke="null" fill="#000000" opacity="NaN" d="m32.86219,46.89428l-16.3179,-15.71321l4.09852,-7.75757c1.78305,-3.2379 1.45348,-5.22556 -0.35494,-7.83833l-7.19981,-8.57354l-4.61397,10.58832c-1.16616,2.95594 -2.54359,5.53684 -0.32954,8.11772l10.2166,9.70595" id="svg_7" transform="rotate(90.2582 19.9148 26.953)"/>
 </g>

</svg>