<svg width="40" height="40" xmlns="http://www.w3.org/2000/svg" fill="none">

 <g>
  <title>Layer 1</title>
  <path id="svg_1" fill="black" d="m20,39.9375c0,-2.7667 -0.525,-5.3667 -1.575,-7.8c-1.05,-2.4333 -2.475,-4.55 -4.275,-6.35c-1.8,-1.8 -3.9167,-3.225 -6.35,-4.275c-2.43333,-1.05 -5.03333,-1.575 -7.8,-1.575c2.76667,0 5.36667,-0.525 7.8,-1.575c2.4333,-1.05 4.55,-2.475 6.35,-4.275c1.8,-1.8 3.225,-3.9167 4.275,-6.35c1.05,-2.43333 1.575,-5.03333 1.575,-7.8c0,2.76667 0.525,5.36667 1.575,7.8c1.05,2.4333 2.475,4.7375 4.275,6.5375c1.8,1.8 3.9167,3.0375 6.35,4.0875c2.4333,1.05 5.0333,1.575 7.8,1.575c-2.7667,0 -5.3667,0.525 -7.8,1.575c-2.4333,1.05 -4.55,2.475 -6.35,4.275c-1.8,1.8 -3.225,3.9167 -4.275,6.35c-1.05,2.4333 -1.575,5.0333 -1.575,7.8z"/>
  <path stroke="null" transform="rotate(-122.721 23.8152 13.0236)" id="svg_5" d="m19.31235,20.17731l0,-14.30738l9.00563,14.30738l-9.00563,0z" fill="#ffffff"/>
 </g>
</svg>