<svg width="40" height="40" xmlns="http://www.w3.org/2000/svg" fill="none">
 <g>
  <title>Layer 1</title>
  <path id="svg_1" fill="black" d="m20,39.9375c0,-2.7667 -0.525,-5.3667 -1.575,-7.8c-1.05,-2.4333 -2.475,-4.55 -4.275,-6.35c-1.8,-1.8 -3.9167,-3.225 -6.35,-4.275c-2.43333,-1.05 -5.03333,-1.575 -7.8,-1.575c2.76667,0 5.36667,-0.525 7.8,-1.575c2.4333,-1.05 4.55,-2.475 6.35,-4.275c1.8,-1.8 3.225,-3.9167 4.275,-6.35c1.05,-2.43333 1.575,-5.03333 1.575,-7.8c0,2.76667 0.525,5.36667 1.575,7.8c1.05,2.4333 2.475,4.7375 4.275,6.5375c1.8,1.8 3.9167,3.0375 6.35,4.0875c2.4333,1.05 5.0333,1.575 7.8,1.575c-2.7667,0 -5.3667,0.525 -7.8,1.575c-2.4333,1.05 -4.55,2.475 -6.35,4.275c-1.8,1.8 -3.225,3.9167 -4.275,6.35c-1.05,2.4333 -1.575,5.0333 -1.575,7.8z"/>
  <path stroke="null" transform="rotate(-122.721 23.8152 13.0236)" id="svg_5" d="m19.31235,5.86993l9.00563,14.30738l-9.00563,-14.30738z" fill="#ffffff"/>
  <path fill="#ffffff" d="m20.6828,22.65016c0.41574,-1.48934 -2.38957,-6.52529 -2.47723,-8.33762c-0.08765,-1.81234 5.73055,-0.10915 6.32142,-3.88587l1.14471,-5.64862l0.70478,5.57497c0.62771,4.41986 2.86906,4.70408 6.05376,7.21148l-1.76974,5.08566l-9.9777,0z" id="svg_8" transform="rotate(-146.571 25.3174 13.7141)" stroke="null"/>
  <path stroke="null" fill="#000000" opacity="NaN" d="m21.15697,18.20858l5.14167,-6.76361l-1.29141,-3.33918c-0.56183,-1.39373 -0.45798,-2.2493 0.11183,-3.37395l2.26862,-3.69041l1.45384,4.55765c0.36745,1.27236 0.80147,2.38329 0.10384,3.4942l-3.2192,4.17785" id="svg_4" transform="rotate(-4.74661 25.2366 9.625)"/>
  <path stroke="null" fill="#000000" opacity="NaN" d="m34.89055,22.63994l-5.49989,-6.81934l1.38139,-3.36669c0.60097,-1.40521 0.48989,-2.26783 -0.11963,-3.40174l-2.42667,-3.72081l-1.55512,4.5952c-0.39305,1.28284 -0.85731,2.40292 -0.11107,3.52299l3.44347,4.21226" id="svg_7" transform="rotate(90.2582 30.5267 13.9856)"/>
 </g>

</svg>