<svg width="40" height="40" xmlns="http://www.w3.org/2000/svg" fill="none">
 <g>
  <title>Layer 1</title>
  <path d="m20,39.9375c0,-2.7667 -0.525,-5.3667 -1.575,-7.8c-1.05,-2.4333 -2.475,-4.55 -4.275,-6.35c-1.8,-1.8 -3.9167,-3.225 -6.35,-4.275c-2.43333,-1.05 -5.03333,-1.575 -7.8,-1.575c2.76667,0 5.36667,-0.525 7.8,-1.575c2.4333,-1.05 4.55,-2.475 6.35,-4.275c1.8,-1.8 3.225,-3.9167 4.275,-6.35c1.05,-2.43333 1.575,-5.03333 1.575,-7.8c0,2.76667 0.525,5.36667 1.575,7.8c1.05,2.4333 2.475,4.7375 4.275,6.5375c1.8,1.8 3.9167,3.0375 6.35,4.0875c2.4333,1.05 5.0333,1.575 7.8,1.575c-2.7667,0 -5.3667,0.525 -7.8,1.575c-2.4333,1.05 -4.55,2.475 -6.35,4.275c-1.8,1.8 -3.225,3.9167 -4.275,6.35c-1.05,2.4333 -1.575,5.0333 -1.575,7.8z" fill="black" id="svg_1"/>
  <path fill="#ffffff" d="m19.31235,5.86993l9.00563,14.30738l-9.00563,-14.30738z" id="svg_5" transform="rotate(-122.721 23.8152 13.0236)" stroke="null"/>
  <path stroke="null" transform="rotate(-146.571 25.3174 13.7141)" id="svg_8" d="m20.6828,22.65016c0.41574,-1.48934 -2.38957,-6.52529 -2.47723,-8.33762c-0.08765,-1.81234 5.73055,-0.10915 6.32142,-3.88587l1.14471,-5.64862l0.70478,5.57497c0.62771,4.41986 2.86906,4.70408 6.05376,7.21148l-1.76974,5.08566l-9.9777,0z" fill="#ffffff"/>
  <path stroke="null" transform="rotate(-2.11903 23.3616 11.0938)" id="svg_4" d="m18.80439,22.06351l5.74357,-8.64385l-1.44259,-4.26745c-0.6276,-1.78118 -0.5116,-2.87459 0.12492,-4.31189l2.53419,-4.71632l1.62403,5.82465c0.41047,1.62607 0.8953,3.04583 0.116,4.46557l-3.59605,5.33926" opacity="NaN" fill="#000000"/>
  <path stroke="null" transform="rotate(76.5411 27.0852 15.8736)" id="svg_7" d="m31.41388,24.92992l-5.45548,-7.13613l1.37023,-3.52309c0.59612,-1.47049 0.48593,-2.37318 -0.11866,-3.55977l-2.40708,-3.89366l-1.54256,4.80867c-0.38988,1.34244 -0.85039,2.51455 -0.11018,3.68665l3.41567,4.40794" opacity="NaN" fill="#000000"/>
 </g>

</svg>