<svg width="40" height="40" xmlns="http://www.w3.org/2000/svg" fill="none">
 <g>
  <title>Layer 1</title>
  <path d="m19.9375,39.8125c0,-2.7667 -0.525,-5.3667 -1.575,-7.8c-1.05,-2.4333 -2.475,-4.55 -4.275,-6.35c-1.8,-1.8 -3.9167,-3.225 -6.35,-4.275c-2.43333,-1.05 -5.03333,-1.575 -7.8,-1.575c2.76667,0 5.36667,-0.525 7.8,-1.575c2.4333,-1.05 4.55,-2.475 6.35,-4.275c1.8,-1.8 3.225,-3.9167 4.275,-6.35c1.05,-2.43333 1.575,-5.03333 1.575,-7.8c0,2.76667 0.525,5.36667 1.575,7.8c0.525,1.21665 2.83125,3.58853 1.10625,7.63124l-2.14375,4.84376l4.00001,-2.7375c4.24584,-3.08437 6.44584,0.3625 7.66249,0.8875c2.4333,1.05 5.0333,1.575 7.8,1.575c-2.7667,0 -5.3667,0.525 -7.8,1.575c-2.4333,1.05 -4.55,2.475 -6.35,4.275c-1.8,1.8 -3.225,3.9167 -4.275,6.35c-1.05,2.4333 -1.575,5.0333 -1.575,7.8z" fill="black" id="svg_1"/>
  <path fill="#ffffff" d="m19.31235,5.86993l9.00563,14.30738l-9.00563,-14.30738z" id="svg_5" transform="rotate(-122.721 23.8152 13.0236)" stroke="null"/>
  <path transform="rotate(-4.74661 25.2366 9.625)" id="svg_4" d="m21.15697,18.20858l5.14167,-6.76361l-1.29141,-3.33918c-0.56183,-1.39373 -0.45798,-2.2493 0.11183,-3.37395l2.26862,-3.69041l1.45384,4.55765c0.36745,1.27236 0.80147,2.38329 0.10384,3.4942l-3.2192,4.17785" opacity="NaN" fill="#000000" stroke="null"/>
  <path transform="rotate(90.2582 30.5267 13.9231)" id="svg_7" d="m34.89055,22.57744l-5.49989,-6.81934l1.38139,-3.36669c0.60097,-1.40521 0.48989,-2.26783 -0.11963,-3.40174l-2.42667,-3.72081l-1.55512,4.5952c-0.39305,1.28284 -0.85731,2.40292 -0.11107,3.52299l3.44347,4.21226" opacity="NaN" fill="#000000" stroke="null"/>
 </g>

</svg>